<?xml version="1.0" encoding="UTF-8" standalone="no"?>
<!DOCTYPE svg PUBLIC "-//W3C//DTD SVG 1.1//EN"
 "http://www.w3.org/Graphics/SVG/1.1/DTD/svg11.dtd">
<!-- Generated by graphviz version 2.43.0 (0)
 -->
<!-- Title: G Pages: 1 -->
<svg width="1093pt" height="638pt"
 viewBox="0.00 0.00 1093.00 638.00" xmlns="http://www.w3.org/2000/svg" xmlns:xlink="http://www.w3.org/1999/xlink">
<g id="graph0" class="graph" transform="scale(1 1) rotate(0) translate(4 634)">
<title>G</title>
<polygon fill="white" stroke="transparent" points="-4,4 -4,-634 1089,-634 1089,4 -4,4"/>
<g id="clust1" class="cluster">
<title>cluster_root</title>
<g id="a_clust1"><a xlink:title="eventq_index=0&#10;full_system=false&#10;sim_quantum=0&#10;time_sync_enable=false&#10;time_sync_period=100000000000&#10;time_sync_spin_threshold=100000000">
<path fill="#bab6ae" stroke="#000000" d="M20,-8C20,-8 1065,-8 1065,-8 1071,-8 1077,-14 1077,-20 1077,-20 1077,-610 1077,-610 1077,-616 1071,-622 1065,-622 1065,-622 20,-622 20,-622 14,-622 8,-616 8,-610 8,-610 8,-20 8,-20 8,-14 14,-8 20,-8"/>
<text text-anchor="middle" x="542.5" y="-606.8" font-family="Arial" font-size="14.00" fill="#000000">root </text>
<text text-anchor="middle" x="542.5" y="-591.8" font-family="Arial" font-size="14.00" fill="#000000">: Root</text>
</a>
</g>
</g>
<g id="clust2" class="cluster">
<title>cluster_system</title>
<g id="a_clust2"><a xlink:title="byte_order=little&#10;cache_line_size=64&#10;eventq_index=0&#10;exit_on_work_items=false&#10;init_param=0&#10;kvm_vm=Null&#10;m5ops_base=4294901760&#10;mem_mode=timing&#10;mem_ranges=0:536870912&#10;memories=system.mem_ctrls.dram&#10;mmap_using_noreserve=false&#10;multi_thread=false&#10;&#10;um_work_ids=16&#10;&#13;eadfile=&#10;&#13;edirect_paths=system.redirect_paths0 system.redirect_paths1 system.redirect_paths2&#10;shared_backstore=&#10;symbolfile=&#10;thermal_components=&#10;thermal_model=Null&#10;work_begin_ckpt_count=0&#10;work_begin_cpu_id_exit=&#45;1&#10;work_begin_exit_count=0&#10;work_cpus_ckpt_count=0&#10;work_end_ckpt_count=0&#10;work_end_exit_count=0&#10;work_item_id=&#45;1&#10;workload=Null">
<path fill="#e4e7eb" stroke="#000000" d="M28,-16C28,-16 1057,-16 1057,-16 1063,-16 1069,-22 1069,-28 1069,-28 1069,-564 1069,-564 1069,-570 1063,-576 1057,-576 1057,-576 28,-576 28,-576 22,-576 16,-570 16,-564 16,-564 16,-28 16,-28 16,-22 22,-16 28,-16"/>
<text text-anchor="middle" x="542.5" y="-560.8" font-family="Arial" font-size="14.00" fill="#000000">system </text>
<text text-anchor="middle" x="542.5" y="-545.8" font-family="Arial" font-size="14.00" fill="#000000">: System</text>
</a>
</g>
</g>
<g id="clust4" class="cluster">
<title>cluster_system_cpu</title>
<g id="a_clust4"><a xlink:title="LFSTSize=1024&#10;LQEntries=72&#10;LSQCheckLoads=true&#10;LSQDepCheckShift=0&#10;SQEntries=56&#10;SSITSize=1024&#10;activity=0&#10;backComSize=5&#10;branchPred=system.cpu.branchPred&#10;cacheLoadPorts=200&#10;cacheStorePorts=200&#10;checker=Null&#10;clk_domain=system.cpu_clk_domain&#10;commitToDecodeDelay=1&#10;commitToFetchDelay=1&#10;commitToIEWDelay=1&#10;commitToRenameDelay=1&#10;commitWidth=8&#10;cpu_id=0&#10;decodeToFetchDelay=1&#10;decodeToRenameDelay=2&#10;decodeWidth=5&#10;dispatchWidth=8&#10;do_checkpoint_insts=true&#10;do_statistics_insts=true&#10;dtb=system.cpu.dtb&#10;eventq_index=0&#10;fetchBufferSize=16&#10;fetchQueueSize=32&#10;fetchToDecodeDelay=3&#10;fetchTrapLatency=1&#10;fetchWidth=8&#10;forwardComSize=5&#10;fuPool=system.cpu.fuPool&#10;function_trace=false&#10;function_trace_start=0&#10;iewToCommitDelay=1&#10;iewToDecodeDelay=1&#10;iewToFetchDelay=1&#10;iewToRenameDelay=1&#10;interrupts=system.cpu.interrupts&#10;isa=system.cpu.isa&#10;issueToExecuteDelay=1&#10;issueWidth=8&#10;itb=system.cpu.itb&#10;max_insts_all_threads=0&#10;max_insts_any_thread=0&#10;&#10;eedsTSO=true&#10;&#10;umIQEntries=97&#10;&#10;umPhysCCRegs=1090&#10;&#10;umPhysFloatRegs=220&#10;&#10;umPhysIntRegs=218&#10;&#10;umPhysVecPredRegs=32&#10;&#10;umPhysVecRegs=168&#10;&#10;umROBEntries=224&#10;&#10;umRobs=1&#10;&#10;umThreads=1&#10;power_gating_on_idle=false&#10;power_model=&#10;power_state=system.cpu.power_state&#10;progress_interval=0&#10;pwr_gating_latency=300&#10;&#13;enameToDecodeDelay=1&#10;&#13;enameToFetchDelay=1&#10;&#13;enameToIEWDelay=1&#10;&#13;enameToROBDelay=1&#10;&#13;enameWidth=8&#10;simpoint_start_insts=&#10;smtCommitPolicy=RoundRobin&#10;smtFetchPolicy=SingleThread&#10;smtIQPolicy=Partitioned&#10;smtIQThreshold=100&#10;smtLSQPolicy=Partitioned&#10;smtLSQThreshold=100&#10;smtNumFetchingThreads=1&#10;smtROBPolicy=Partitioned&#10;smtROBThreshold=100&#10;socket_id=0&#10;squashWidth=8&#10;store_set_clear_period=250000&#10;switched_out=false&#10;syscallRetryLatency=10000&#10;system=system&#10;tracer=system.cpu.tracer&#10;trapLatency=13&#10;wait_for_remote_gdb=false&#10;wbWidth=8&#10;workload=system.cpu.workload">
<path fill="#bbc6d9" stroke="#000000" d="M108,-24C108,-24 957,-24 957,-24 963,-24 969,-30 969,-36 969,-36 969,-334 969,-334 969,-340 963,-346 957,-346 957,-346 108,-346 108,-346 102,-346 96,-340 96,-334 96,-334 96,-36 96,-36 96,-30 102,-24 108,-24"/>
<text text-anchor="middle" x="532.5" y="-330.8" font-family="Arial" font-size="14.00" fill="#000000">cpu </text>
<text text-anchor="middle" x="532.5" y="-315.8" font-family="Arial" font-size="14.00" fill="#000000">: Skylake</text>
</a>
</g>
</g>
<g id="clust88" class="cluster">
<title>cluster_system_cpu_dtb</title>
<g id="a_clust88"><a xlink:title="eventq_index=0&#10;size=64&#10;system=system&#10;walker=system.cpu.dtb.walker">
<path fill="#bab6ae" stroke="#000000" d="M806,-155C806,-155 949,-155 949,-155 955,-155 961,-161 961,-167 961,-167 961,-288 961,-288 961,-294 955,-300 949,-300 949,-300 806,-300 806,-300 800,-300 794,-294 794,-288 794,-288 794,-167 794,-167 794,-161 800,-155 806,-155"/>
<text text-anchor="middle" x="877.5" y="-284.8" font-family="Arial" font-size="14.00" fill="#000000">dtb </text>
<text text-anchor="middle" x="877.5" y="-269.8" font-family="Arial" font-size="14.00" fill="#000000">: X86TLB</text>
</a>
</g>
</g>
<g id="clust89" class="cluster">
<title>cluster_system_cpu_dtb_walker</title>
<g id="a_clust89"><a xlink:title="clk_domain=system.cpu_clk_domain&#10;eventq_index=0&#10;&#10;um_squash_per_cycle=4&#10;power_model=&#10;power_state=system.cpu.dtb.walker.power_state&#10;system=system">
<path fill="#9f9c95" stroke="#000000" d="M814,-163C814,-163 941,-163 941,-163 947,-163 953,-169 953,-175 953,-175 953,-242 953,-242 953,-248 947,-254 941,-254 941,-254 814,-254 814,-254 808,-254 802,-248 802,-242 802,-242 802,-175 802,-175 802,-169 808,-163 814,-163"/>
<text text-anchor="middle" x="877.5" y="-238.8" font-family="Arial" font-size="14.00" fill="#000000">walker </text>
<text text-anchor="middle" x="877.5" y="-223.8" font-family="Arial" font-size="14.00" fill="#000000">: X86PagetableWalker</text>
</a>
</g>
</g>
<g id="clust91" class="cluster">
<title>cluster_system_cpu_itb</title>
<g id="a_clust91"><a xlink:title="eventq_index=0&#10;size=64&#10;system=system&#10;walker=system.cpu.itb.walker">
<path fill="#bab6ae" stroke="#000000" d="M631,-155C631,-155 774,-155 774,-155 780,-155 786,-161 786,-167 786,-167 786,-288 786,-288 786,-294 780,-300 774,-300 774,-300 631,-300 631,-300 625,-300 619,-294 619,-288 619,-288 619,-167 619,-167 619,-161 625,-155 631,-155"/>
<text text-anchor="middle" x="702.5" y="-284.8" font-family="Arial" font-size="14.00" fill="#000000">itb </text>
<text text-anchor="middle" x="702.5" y="-269.8" font-family="Arial" font-size="14.00" fill="#000000">: X86TLB</text>
</a>
</g>
</g>
<g id="clust92" class="cluster">
<title>cluster_system_cpu_itb_walker</title>
<g id="a_clust92"><a xlink:title="clk_domain=system.cpu_clk_domain&#10;eventq_index=0&#10;&#10;um_squash_per_cycle=4&#10;power_model=&#10;power_state=system.cpu.itb.walker.power_state&#10;system=system">
<path fill="#9f9c95" stroke="#000000" d="M639,-163C639,-163 766,-163 766,-163 772,-163 778,-169 778,-175 778,-175 778,-242 778,-242 778,-248 772,-254 766,-254 766,-254 639,-254 639,-254 633,-254 627,-248 627,-242 627,-242 627,-175 627,-175 627,-169 633,-163 639,-163"/>
<text text-anchor="middle" x="702.5" y="-238.8" font-family="Arial" font-size="14.00" fill="#000000">walker </text>
<text text-anchor="middle" x="702.5" y="-223.8" font-family="Arial" font-size="14.00" fill="#000000">: X86PagetableWalker</text>
</a>
</g>
</g>
<g id="clust98" class="cluster">
<title>cluster_system_cpu_icache</title>
<g id="a_clust98"><a xlink:title="addr_ranges=0:18446744073709551615&#10;assoc=2&#10;clk_domain=system.cpu_clk_domain&#10;clusivity=mostly_incl&#10;compressor=Null&#10;data_latency=1&#10;demand_mshr_reserve=1&#10;eventq_index=0&#10;is_read_only=true&#10;max_miss_count=0&#10;mshrs=16&#10;power_model=&#10;power_state=system.cpu.icache.power_state&#10;prefetch_on_access=false&#10;prefetcher=Null&#10;&#13;eplacement_policy=system.cpu.icache.replacement_policy&#10;&#13;esponse_latency=1&#10;sequential_access=false&#10;size=32768&#10;system=system&#10;tag_latency=1&#10;tags=system.cpu.icache.tags&#10;tgts_per_mshr=8&#10;warmup_percentage=0&#10;write_allocator=Null&#10;write_buffers=8&#10;writeback_clean=true">
<path fill="#bab6ae" stroke="#000000" d="M116,-32C116,-32 278,-32 278,-32 284,-32 290,-38 290,-44 290,-44 290,-111 290,-111 290,-117 284,-123 278,-123 278,-123 116,-123 116,-123 110,-123 104,-117 104,-111 104,-111 104,-44 104,-44 104,-38 110,-32 116,-32"/>
<text text-anchor="middle" x="197" y="-107.8" font-family="Arial" font-size="14.00" fill="#000000">icache </text>
<text text-anchor="middle" x="197" y="-92.8" font-family="Arial" font-size="14.00" fill="#000000">: Skylake_ICache</text>
</a>
</g>
</g>
<g id="clust104" class="cluster">
<title>cluster_system_cpu_dcache</title>
<g id="a_clust104"><a xlink:title="addr_ranges=0:18446744073709551615&#10;assoc=2&#10;clk_domain=system.cpu_clk_domain&#10;clusivity=mostly_incl&#10;compressor=Null&#10;data_latency=2&#10;demand_mshr_reserve=1&#10;eventq_index=0&#10;is_read_only=false&#10;max_miss_count=0&#10;mshrs=16&#10;power_model=&#10;power_state=system.cpu.dcache.power_state&#10;prefetch_on_access=false&#10;prefetcher=Null&#10;&#13;eplacement_policy=system.cpu.dcache.replacement_policy&#10;&#13;esponse_latency=2&#10;sequential_access=false&#10;size=65536&#10;system=system&#10;tag_latency=2&#10;tags=system.cpu.dcache.tags&#10;tgts_per_mshr=8&#10;warmup_percentage=0&#10;write_allocator=Null&#10;write_buffers=64&#10;writeback_clean=true">
<path fill="#bab6ae" stroke="#000000" d="M310,-32C310,-32 472,-32 472,-32 478,-32 484,-38 484,-44 484,-44 484,-111 484,-111 484,-117 478,-123 472,-123 472,-123 310,-123 310,-123 304,-123 298,-117 298,-111 298,-111 298,-44 298,-44 298,-38 304,-32 310,-32"/>
<text text-anchor="middle" x="391" y="-107.8" font-family="Arial" font-size="14.00" fill="#000000">dcache </text>
<text text-anchor="middle" x="391" y="-92.8" font-family="Arial" font-size="14.00" fill="#000000">: Skylake_DCache</text>
</a>
</g>
</g>
<g id="clust110" class="cluster">
<title>cluster_system_cpu_itb_walker_cache</title>
<g id="a_clust110"><a xlink:title="addr_ranges=0:18446744073709551615&#10;assoc=4&#10;clk_domain=system.cpu_clk_domain&#10;clusivity=mostly_incl&#10;compressor=Null&#10;data_latency=2&#10;demand_mshr_reserve=1&#10;eventq_index=0&#10;is_read_only=true&#10;max_miss_count=0&#10;mshrs=16&#10;power_model=&#10;power_state=system.cpu.itb_walker_cache.power_state&#10;prefetch_on_access=false&#10;prefetcher=Null&#10;&#13;eplacement_policy=system.cpu.itb_walker_cache.replacement_policy&#10;&#13;esponse_latency=1&#10;sequential_access=false&#10;size=1024&#10;system=system&#10;tag_latency=2&#10;tags=system.cpu.itb_walker_cache.tags&#10;tgts_per_mshr=8&#10;warmup_percentage=0&#10;write_allocator=Null&#10;write_buffers=64&#10;writeback_clean=true">
<path fill="#bab6ae" stroke="#000000" d="M508,-32C508,-32 670,-32 670,-32 676,-32 682,-38 682,-44 682,-44 682,-111 682,-111 682,-117 676,-123 670,-123 670,-123 508,-123 508,-123 502,-123 496,-117 496,-111 496,-111 496,-44 496,-44 496,-38 502,-32 508,-32"/>
<text text-anchor="middle" x="589" y="-107.8" font-family="Arial" font-size="14.00" fill="#000000">itb_walker_cache </text>
<text text-anchor="middle" x="589" y="-92.8" font-family="Arial" font-size="14.00" fill="#000000">: SkylakeWalkCache</text>
</a>
</g>
</g>
<g id="clust116" class="cluster">
<title>cluster_system_cpu_dtb_walker_cache</title>
<g id="a_clust116"><a xlink:title="addr_ranges=0:18446744073709551615&#10;assoc=4&#10;clk_domain=system.cpu_clk_domain&#10;clusivity=mostly_incl&#10;compressor=Null&#10;data_latency=2&#10;demand_mshr_reserve=1&#10;eventq_index=0&#10;is_read_only=true&#10;max_miss_count=0&#10;mshrs=16&#10;power_model=&#10;power_state=system.cpu.dtb_walker_cache.power_state&#10;prefetch_on_access=false&#10;prefetcher=Null&#10;&#13;eplacement_policy=system.cpu.dtb_walker_cache.replacement_policy&#10;&#13;esponse_latency=1&#10;sequential_access=false&#10;size=1024&#10;system=system&#10;tag_latency=2&#10;tags=system.cpu.dtb_walker_cache.tags&#10;tgts_per_mshr=8&#10;warmup_percentage=0&#10;write_allocator=Null&#10;write_buffers=64&#10;writeback_clean=true">
<path fill="#bab6ae" stroke="#000000" d="M704,-32C704,-32 866,-32 866,-32 872,-32 878,-38 878,-44 878,-44 878,-111 878,-111 878,-117 872,-123 866,-123 866,-123 704,-123 704,-123 698,-123 692,-117 692,-111 692,-111 692,-44 692,-44 692,-38 698,-32 704,-32"/>
<text text-anchor="middle" x="785" y="-107.8" font-family="Arial" font-size="14.00" fill="#000000">dtb_walker_cache </text>
<text text-anchor="middle" x="785" y="-92.8" font-family="Arial" font-size="14.00" fill="#000000">: SkylakeWalkCache</text>
</a>
</g>
</g>
<g id="clust122" class="cluster">
<title>cluster_system_cpu_interrupts</title>
<g id="a_clust122"><a xlink:title="clk_domain=system.cpu.interrupts.clk_domain&#10;eventq_index=0&#10;int_latency=1000&#10;pio_latency=100000&#10;system=system">
<path fill="#bab6ae" stroke="#000000" d="M321,-163C321,-163 599,-163 599,-163 605,-163 611,-169 611,-175 611,-175 611,-242 611,-242 611,-248 605,-254 599,-254 599,-254 321,-254 321,-254 315,-254 309,-248 309,-242 309,-242 309,-175 309,-175 309,-169 315,-163 321,-163"/>
<text text-anchor="middle" x="460" y="-238.8" font-family="Arial" font-size="14.00" fill="#000000">interrupts </text>
<text text-anchor="middle" x="460" y="-223.8" font-family="Arial" font-size="14.00" fill="#000000">: X86LocalApic</text>
</a>
</g>
</g>
<g id="clust128" class="cluster">
<title>cluster_system_membus</title>
<g id="a_clust128"><a xlink:title="clk_domain=system.clk_domain&#10;eventq_index=0&#10;forward_latency=4&#10;frontend_latency=3&#10;header_latency=1&#10;max_outstanding_snoops=512&#10;max_routing_table_size=512&#10;point_of_coherency=true&#10;point_of_unification=true&#10;power_model=&#10;power_state=system.membus.power_state&#10;&#13;esponse_latency=2&#10;snoop_filter=system.membus.snoop_filter&#10;snoop_response_latency=4&#10;system=system&#10;use_default_range=false&#10;width=16">
<path fill="#6f798c" stroke="#000000" d="M156,-354C156,-354 392,-354 392,-354 398,-354 404,-360 404,-366 404,-366 404,-433 404,-433 404,-439 398,-445 392,-445 392,-445 156,-445 156,-445 150,-445 144,-439 144,-433 144,-433 144,-366 144,-366 144,-360 150,-354 156,-354"/>
<text text-anchor="middle" x="274" y="-429.8" font-family="Arial" font-size="14.00" fill="#000000">membus </text>
<text text-anchor="middle" x="274" y="-414.8" font-family="Arial" font-size="14.00" fill="#000000">: SystemXBar</text>
</a>
</g>
</g>
<g id="clust131" class="cluster">
<title>cluster_system_mem_ctrls</title>
<g id="a_clust131"><a xlink:title="clk_domain=system.clk_domain&#10;command_window=10000&#10;dram=system.mem_ctrls.dram&#10;eventq_index=0&#10;mem_sched_policy=frfcfs&#10;min_writes_per_switch=16&#10;&#10;vm=Null&#10;power_model=&#10;power_state=system.mem_ctrls.power_state&#10;qos_policy=Null&#10;qos_priorities=1&#10;qos_priority_escalation=false&#10;qos_q_policy=fifo&#10;qos_requestors= &#160;&#160;&#160;&#160;&#160;&#160;&#160;&#160;&#160;&#160;&#160;&#160;&#160;&#160;&#10;qos_syncro_scheduler=false&#10;qos_turnaround_policy=Null&#10;static_backend_latency=10000&#10;static_frontend_latency=10000&#10;system=system&#10;write_high_thresh_perc=85&#10;write_low_thresh_perc=50">
<path fill="#bab6ae" stroke="#000000" d="M989,-163C989,-163 1049,-163 1049,-163 1055,-163 1061,-169 1061,-175 1061,-175 1061,-242 1061,-242 1061,-248 1055,-254 1049,-254 1049,-254 989,-254 989,-254 983,-254 977,-248 977,-242 977,-242 977,-175 977,-175 977,-169 983,-163 989,-163"/>
<text text-anchor="middle" x="1019" y="-238.8" font-family="Arial" font-size="14.00" fill="#000000">mem_ctrls </text>
<text text-anchor="middle" x="1019" y="-223.8" font-family="Arial" font-size="14.00" fill="#000000">: MemCtrl</text>
</a>
</g>
</g>
<!-- system_system_port -->
<g id="node1" class="node">
<title>system_system_port</title>
<path fill="#b6b8bc" stroke="#000000" d="M172.5,-493.5C172.5,-493.5 239.5,-493.5 239.5,-493.5 245.5,-493.5 251.5,-499.5 251.5,-505.5 251.5,-505.5 251.5,-517.5 251.5,-517.5 251.5,-523.5 245.5,-529.5 239.5,-529.5 239.5,-529.5 172.5,-529.5 172.5,-529.5 166.5,-529.5 160.5,-523.5 160.5,-517.5 160.5,-517.5 160.5,-505.5 160.5,-505.5 160.5,-499.5 166.5,-493.5 172.5,-493.5"/>
<text text-anchor="middle" x="206" y="-507.8" font-family="Arial" font-size="14.00" fill="#000000">system_port</text>
</g>
<!-- system_membus_cpu_side_ports -->
<g id="node17" class="node">
<title>system_membus_cpu_side_ports</title>
<path fill="#586070" stroke="#000000" d="M164,-362.5C164,-362.5 248,-362.5 248,-362.5 254,-362.5 260,-368.5 260,-374.5 260,-374.5 260,-386.5 260,-386.5 260,-392.5 254,-398.5 248,-398.5 248,-398.5 164,-398.5 164,-398.5 158,-398.5 152,-392.5 152,-386.5 152,-386.5 152,-374.5 152,-374.5 152,-368.5 158,-362.5 164,-362.5"/>
<text text-anchor="middle" x="206" y="-376.8" font-family="Arial" font-size="14.00" fill="#000000">cpu_side_ports</text>
</g>
<!-- system_system_port&#45;&gt;system_membus_cpu_side_ports -->
<g id="edge1" class="edge">
<title>system_system_port&#45;&gt;system_membus_cpu_side_ports</title>
<path fill="none" stroke="black" d="M206,-493.37C206,-471.78 206,-434.41 206,-408.85"/>
<polygon fill="black" stroke="black" points="209.5,-408.7 206,-398.7 202.5,-408.7 209.5,-408.7"/>
</g>
<!-- system_cpu_icache_port -->
<g id="node2" class="node">
<title>system_cpu_icache_port</title>
<path fill="#959ead" stroke="#000000" d="M116,-171.5C116,-171.5 178,-171.5 178,-171.5 184,-171.5 190,-177.5 190,-183.5 190,-183.5 190,-195.5 190,-195.5 190,-201.5 184,-207.5 178,-207.5 178,-207.5 116,-207.5 116,-207.5 110,-207.5 104,-201.5 104,-195.5 104,-195.5 104,-183.5 104,-183.5 104,-177.5 110,-171.5 116,-171.5"/>
<text text-anchor="middle" x="147" y="-185.8" font-family="Arial" font-size="14.00" fill="#000000">icache_port</text>
</g>
<!-- system_cpu_icache_cpu_side -->
<g id="node6" class="node">
<title>system_cpu_icache_cpu_side</title>
<path fill="#94918b" stroke="#000000" d="M222.5,-40.5C222.5,-40.5 269.5,-40.5 269.5,-40.5 275.5,-40.5 281.5,-46.5 281.5,-52.5 281.5,-52.5 281.5,-64.5 281.5,-64.5 281.5,-70.5 275.5,-76.5 269.5,-76.5 269.5,-76.5 222.5,-76.5 222.5,-76.5 216.5,-76.5 210.5,-70.5 210.5,-64.5 210.5,-64.5 210.5,-52.5 210.5,-52.5 210.5,-46.5 216.5,-40.5 222.5,-40.5"/>
<text text-anchor="middle" x="246" y="-54.8" font-family="Arial" font-size="14.00" fill="#000000">cpu_side</text>
</g>
<!-- system_cpu_icache_port&#45;&gt;system_cpu_icache_cpu_side -->
<g id="edge2" class="edge">
<title>system_cpu_icache_port&#45;&gt;system_cpu_icache_cpu_side</title>
<path fill="none" stroke="black" d="M161.79,-171.26C172.85,-158.22 188.2,-139.74 201,-123 210.35,-110.77 220.3,-96.85 228.45,-85.16"/>
<polygon fill="black" stroke="black" points="231.48,-86.94 234.3,-76.72 225.73,-82.95 231.48,-86.94"/>
</g>
<!-- system_cpu_dcache_port -->
<g id="node3" class="node">
<title>system_cpu_dcache_port</title>
<path fill="#959ead" stroke="#000000" d="M220.5,-171.5C220.5,-171.5 287.5,-171.5 287.5,-171.5 293.5,-171.5 299.5,-177.5 299.5,-183.5 299.5,-183.5 299.5,-195.5 299.5,-195.5 299.5,-201.5 293.5,-207.5 287.5,-207.5 287.5,-207.5 220.5,-207.5 220.5,-207.5 214.5,-207.5 208.5,-201.5 208.5,-195.5 208.5,-195.5 208.5,-183.5 208.5,-183.5 208.5,-177.5 214.5,-171.5 220.5,-171.5"/>
<text text-anchor="middle" x="254" y="-185.8" font-family="Arial" font-size="14.00" fill="#000000">dcache_port</text>
</g>
<!-- system_cpu_dcache_cpu_side -->
<g id="node8" class="node">
<title>system_cpu_dcache_cpu_side</title>
<path fill="#94918b" stroke="#000000" d="M416.5,-40.5C416.5,-40.5 463.5,-40.5 463.5,-40.5 469.5,-40.5 475.5,-46.5 475.5,-52.5 475.5,-52.5 475.5,-64.5 475.5,-64.5 475.5,-70.5 469.5,-76.5 463.5,-76.5 463.5,-76.5 416.5,-76.5 416.5,-76.5 410.5,-76.5 404.5,-70.5 404.5,-64.5 404.5,-64.5 404.5,-52.5 404.5,-52.5 404.5,-46.5 410.5,-40.5 416.5,-40.5"/>
<text text-anchor="middle" x="440" y="-54.8" font-family="Arial" font-size="14.00" fill="#000000">cpu_side</text>
</g>
<!-- system_cpu_dcache_port&#45;&gt;system_cpu_dcache_cpu_side -->
<g id="edge3" class="edge">
<title>system_cpu_dcache_port&#45;&gt;system_cpu_dcache_cpu_side</title>
<path fill="none" stroke="black" d="M277.42,-171.42C285.85,-165.74 295.61,-159.67 305,-155 343.01,-136.1 361.15,-148.62 395,-123 408.09,-113.09 418.89,-98.28 426.63,-85.46"/>
<polygon fill="black" stroke="black" points="429.79,-86.99 431.71,-76.57 423.71,-83.51 429.79,-86.99"/>
</g>
<!-- system_cpu_dtb_walker_port -->
<g id="node4" class="node">
<title>system_cpu_dtb_walker_port</title>
<path fill="#7f7c77" stroke="#000000" d="M822,-171.5C822,-171.5 852,-171.5 852,-171.5 858,-171.5 864,-177.5 864,-183.5 864,-183.5 864,-195.5 864,-195.5 864,-201.5 858,-207.5 852,-207.5 852,-207.5 822,-207.5 822,-207.5 816,-207.5 810,-201.5 810,-195.5 810,-195.5 810,-183.5 810,-183.5 810,-177.5 816,-171.5 822,-171.5"/>
<text text-anchor="middle" x="837" y="-185.8" font-family="Arial" font-size="14.00" fill="#000000">port</text>
</g>
<!-- system_cpu_dtb_walker_cache_cpu_side -->
<g id="node12" class="node">
<title>system_cpu_dtb_walker_cache_cpu_side</title>
<path fill="#94918b" stroke="#000000" d="M810.5,-40.5C810.5,-40.5 857.5,-40.5 857.5,-40.5 863.5,-40.5 869.5,-46.5 869.5,-52.5 869.5,-52.5 869.5,-64.5 869.5,-64.5 869.5,-70.5 863.5,-76.5 857.5,-76.5 857.5,-76.5 810.5,-76.5 810.5,-76.5 804.5,-76.5 798.5,-70.5 798.5,-64.5 798.5,-64.5 798.5,-52.5 798.5,-52.5 798.5,-46.5 804.5,-40.5 810.5,-40.5"/>
<text text-anchor="middle" x="834" y="-54.8" font-family="Arial" font-size="14.00" fill="#000000">cpu_side</text>
</g>
<!-- system_cpu_dtb_walker_port&#45;&gt;system_cpu_dtb_walker_cache_cpu_side -->
<g id="edge4" class="edge">
<title>system_cpu_dtb_walker_port&#45;&gt;system_cpu_dtb_walker_cache_cpu_side</title>
<path fill="none" stroke="black" d="M836.6,-171.37C836.1,-149.78 835.23,-112.41 834.64,-86.85"/>
<polygon fill="black" stroke="black" points="838.13,-86.62 834.4,-76.7 831.13,-86.78 838.13,-86.62"/>
</g>
<!-- system_cpu_itb_walker_port -->
<g id="node5" class="node">
<title>system_cpu_itb_walker_port</title>
<path fill="#7f7c77" stroke="#000000" d="M647,-171.5C647,-171.5 677,-171.5 677,-171.5 683,-171.5 689,-177.5 689,-183.5 689,-183.5 689,-195.5 689,-195.5 689,-201.5 683,-207.5 677,-207.5 677,-207.5 647,-207.5 647,-207.5 641,-207.5 635,-201.5 635,-195.5 635,-195.5 635,-183.5 635,-183.5 635,-177.5 641,-171.5 647,-171.5"/>
<text text-anchor="middle" x="662" y="-185.8" font-family="Arial" font-size="14.00" fill="#000000">port</text>
</g>
<!-- system_cpu_itb_walker_cache_cpu_side -->
<g id="node10" class="node">
<title>system_cpu_itb_walker_cache_cpu_side</title>
<path fill="#94918b" stroke="#000000" d="M614.5,-40.5C614.5,-40.5 661.5,-40.5 661.5,-40.5 667.5,-40.5 673.5,-46.5 673.5,-52.5 673.5,-52.5 673.5,-64.5 673.5,-64.5 673.5,-70.5 667.5,-76.5 661.5,-76.5 661.5,-76.5 614.5,-76.5 614.5,-76.5 608.5,-76.5 602.5,-70.5 602.5,-64.5 602.5,-64.5 602.5,-52.5 602.5,-52.5 602.5,-46.5 608.5,-40.5 614.5,-40.5"/>
<text text-anchor="middle" x="638" y="-54.8" font-family="Arial" font-size="14.00" fill="#000000">cpu_side</text>
</g>
<!-- system_cpu_itb_walker_port&#45;&gt;system_cpu_itb_walker_cache_cpu_side -->
<g id="edge5" class="edge">
<title>system_cpu_itb_walker_port&#45;&gt;system_cpu_itb_walker_cache_cpu_side</title>
<path fill="none" stroke="black" d="M658.81,-171.37C654.8,-149.78 647.84,-112.41 643.09,-86.85"/>
<polygon fill="black" stroke="black" points="646.47,-85.89 641.2,-76.7 639.59,-87.17 646.47,-85.89"/>
</g>
<!-- system_cpu_icache_mem_side -->
<g id="node7" class="node">
<title>system_cpu_icache_mem_side</title>
<path fill="#94918b" stroke="#000000" d="M124,-40.5C124,-40.5 180,-40.5 180,-40.5 186,-40.5 192,-46.5 192,-52.5 192,-52.5 192,-64.5 192,-64.5 192,-70.5 186,-76.5 180,-76.5 180,-76.5 124,-76.5 124,-76.5 118,-76.5 112,-70.5 112,-64.5 112,-64.5 112,-52.5 112,-52.5 112,-46.5 118,-40.5 124,-40.5"/>
<text text-anchor="middle" x="152" y="-54.8" font-family="Arial" font-size="14.00" fill="#000000">mem_side</text>
</g>
<!-- system_cpu_dcache_mem_side -->
<g id="node9" class="node">
<title>system_cpu_dcache_mem_side</title>
<path fill="#94918b" stroke="#000000" d="M318,-40.5C318,-40.5 374,-40.5 374,-40.5 380,-40.5 386,-46.5 386,-52.5 386,-52.5 386,-64.5 386,-64.5 386,-70.5 380,-76.5 374,-76.5 374,-76.5 318,-76.5 318,-76.5 312,-76.5 306,-70.5 306,-64.5 306,-64.5 306,-52.5 306,-52.5 306,-46.5 312,-40.5 318,-40.5"/>
<text text-anchor="middle" x="346" y="-54.8" font-family="Arial" font-size="14.00" fill="#000000">mem_side</text>
</g>
<!-- system_cpu_itb_walker_cache_mem_side -->
<g id="node11" class="node">
<title>system_cpu_itb_walker_cache_mem_side</title>
<path fill="#94918b" stroke="#000000" d="M516,-40.5C516,-40.5 572,-40.5 572,-40.5 578,-40.5 584,-46.5 584,-52.5 584,-52.5 584,-64.5 584,-64.5 584,-70.5 578,-76.5 572,-76.5 572,-76.5 516,-76.5 516,-76.5 510,-76.5 504,-70.5 504,-64.5 504,-64.5 504,-52.5 504,-52.5 504,-46.5 510,-40.5 516,-40.5"/>
<text text-anchor="middle" x="544" y="-54.8" font-family="Arial" font-size="14.00" fill="#000000">mem_side</text>
</g>
<!-- system_cpu_dtb_walker_cache_mem_side -->
<g id="node13" class="node">
<title>system_cpu_dtb_walker_cache_mem_side</title>
<path fill="#94918b" stroke="#000000" d="M712,-40.5C712,-40.5 768,-40.5 768,-40.5 774,-40.5 780,-46.5 780,-52.5 780,-52.5 780,-64.5 780,-64.5 780,-70.5 774,-76.5 768,-76.5 768,-76.5 712,-76.5 712,-76.5 706,-76.5 700,-70.5 700,-64.5 700,-64.5 700,-52.5 700,-52.5 700,-46.5 706,-40.5 712,-40.5"/>
<text text-anchor="middle" x="740" y="-54.8" font-family="Arial" font-size="14.00" fill="#000000">mem_side</text>
</g>
<!-- system_cpu_interrupts_int_requestor -->
<g id="node14" class="node">
<title>system_cpu_interrupts_int_requestor</title>
<path fill="#94918b" stroke="#000000" d="M329.5,-171.5C329.5,-171.5 400.5,-171.5 400.5,-171.5 406.5,-171.5 412.5,-177.5 412.5,-183.5 412.5,-183.5 412.5,-195.5 412.5,-195.5 412.5,-201.5 406.5,-207.5 400.5,-207.5 400.5,-207.5 329.5,-207.5 329.5,-207.5 323.5,-207.5 317.5,-201.5 317.5,-195.5 317.5,-195.5 317.5,-183.5 317.5,-183.5 317.5,-177.5 323.5,-171.5 329.5,-171.5"/>
<text text-anchor="middle" x="365" y="-185.8" font-family="Arial" font-size="14.00" fill="#000000">int_requestor</text>
</g>
<!-- system_cpu_interrupts_int_responder -->
<g id="node15" class="node">
<title>system_cpu_interrupts_int_responder</title>
<path fill="#94918b" stroke="#000000" d="M515.5,-171.5C515.5,-171.5 590.5,-171.5 590.5,-171.5 596.5,-171.5 602.5,-177.5 602.5,-183.5 602.5,-183.5 602.5,-195.5 602.5,-195.5 602.5,-201.5 596.5,-207.5 590.5,-207.5 590.5,-207.5 515.5,-207.5 515.5,-207.5 509.5,-207.5 503.5,-201.5 503.5,-195.5 503.5,-195.5 503.5,-183.5 503.5,-183.5 503.5,-177.5 509.5,-171.5 515.5,-171.5"/>
<text text-anchor="middle" x="553" y="-185.8" font-family="Arial" font-size="14.00" fill="#000000">int_responder</text>
</g>
<!-- system_cpu_interrupts_pio -->
<g id="node16" class="node">
<title>system_cpu_interrupts_pio</title>
<path fill="#94918b" stroke="#000000" d="M443,-171.5C443,-171.5 473,-171.5 473,-171.5 479,-171.5 485,-177.5 485,-183.5 485,-183.5 485,-195.5 485,-195.5 485,-201.5 479,-207.5 473,-207.5 473,-207.5 443,-207.5 443,-207.5 437,-207.5 431,-201.5 431,-195.5 431,-195.5 431,-183.5 431,-183.5 431,-177.5 437,-171.5 443,-171.5"/>
<text text-anchor="middle" x="458" y="-185.8" font-family="Arial" font-size="14.00" fill="#000000">pio</text>
</g>
<!-- system_membus_cpu_side_ports&#45;&gt;system_cpu_icache_mem_side -->
<g id="edge6" class="edge">
<title>system_membus_cpu_side_ports&#45;&gt;system_cpu_icache_mem_side</title>
<path fill="none" stroke="black" d="M141.81,-374.82C100.79,-370.33 52.94,-361.82 40,-346 -13.76,-280.31 4.43,-232.08 40,-155 56.28,-119.73 92.71,-92.68 119.62,-76.52"/>
<polygon fill="black" stroke="black" points="141.49,-378.3 151.8,-375.84 142.21,-371.34 141.49,-378.3"/>
</g>
<!-- system_membus_cpu_side_ports&#45;&gt;system_cpu_dcache_mem_side -->
<g id="edge7" class="edge">
<title>system_membus_cpu_side_ports&#45;&gt;system_cpu_dcache_mem_side</title>
<path fill="none" stroke="black" d="M141.76,-372.66C107.58,-367.56 70.47,-359.14 60,-346 33.56,-312.8 32.09,-186.98 60,-155 94.51,-115.45 248.2,-148.63 294,-123 313.15,-112.28 328.08,-91.48 336.93,-76.6"/>
<polygon fill="black" stroke="black" points="141.38,-376.14 151.77,-374.08 142.36,-369.21 141.38,-376.14"/>
</g>
<!-- system_membus_cpu_side_ports&#45;&gt;system_cpu_itb_walker_cache_mem_side -->
<g id="edge8" class="edge">
<title>system_membus_cpu_side_ports&#45;&gt;system_cpu_itb_walker_cache_mem_side</title>
<path fill="none" stroke="black" d="M141.81,-369.83C114.93,-364.35 88.05,-356.47 80,-346 54.13,-312.35 51.18,-186.16 80,-155 141.74,-88.23 406.64,-163.63 488,-123 508.38,-112.82 524.61,-91.69 534.25,-76.6"/>
<polygon fill="black" stroke="black" points="141.19,-373.28 151.68,-371.75 142.53,-366.41 141.19,-373.28"/>
</g>
<!-- system_membus_cpu_side_ports&#45;&gt;system_cpu_dtb_walker_cache_mem_side -->
<g id="edge9" class="edge">
<title>system_membus_cpu_side_ports&#45;&gt;system_cpu_dtb_walker_cache_mem_side</title>
<path fill="none" stroke="black" d="M141.86,-375.15C122.78,-370.49 103.84,-361.82 92,-346 79.28,-329.01 77.4,-170.4 92,-155 137.46,-107.02 626.77,-152.34 686,-123 706.1,-113.04 721.66,-91.86 730.8,-76.7"/>
<polygon fill="black" stroke="black" points="141.3,-378.61 151.8,-377.24 142.74,-371.76 141.3,-378.61"/>
</g>
<!-- system_membus_cpu_side_ports&#45;&gt;system_cpu_interrupts_int_requestor -->
<g id="edge10" class="edge">
<title>system_membus_cpu_side_ports&#45;&gt;system_cpu_interrupts_int_requestor</title>
<path fill="none" stroke="black" d="M254.05,-358.86C259.05,-357.08 264.09,-355.41 269,-354 288.52,-348.38 298.66,-359.32 314,-346 355.41,-310.05 363.37,-239.93 364.78,-207.59"/>
<polygon fill="black" stroke="black" points="252.67,-355.64 244.54,-362.43 255.13,-362.2 252.67,-355.64"/>
</g>
<!-- system_membus_mem_side_ports -->
<g id="node18" class="node">
<title>system_membus_mem_side_ports</title>
<path fill="#586070" stroke="#000000" d="M290,-362.5C290,-362.5 384,-362.5 384,-362.5 390,-362.5 396,-368.5 396,-374.5 396,-374.5 396,-386.5 396,-386.5 396,-392.5 390,-398.5 384,-398.5 384,-398.5 290,-398.5 290,-398.5 284,-398.5 278,-392.5 278,-386.5 278,-386.5 278,-374.5 278,-374.5 278,-368.5 284,-362.5 290,-362.5"/>
<text text-anchor="middle" x="337" y="-376.8" font-family="Arial" font-size="14.00" fill="#000000">mem_side_ports</text>
</g>
<!-- system_membus_mem_side_ports&#45;&gt;system_cpu_interrupts_int_responder -->
<g id="edge12" class="edge">
<title>system_membus_mem_side_ports&#45;&gt;system_cpu_interrupts_int_responder</title>
<path fill="none" stroke="black" d="M396.19,-372.81C434.28,-367.41 479.3,-358.61 494,-346 532.33,-313.11 545.82,-252.58 550.53,-217.52"/>
<polygon fill="black" stroke="black" points="554.01,-217.87 551.72,-207.52 547.06,-217.04 554.01,-217.87"/>
</g>
<!-- system_membus_mem_side_ports&#45;&gt;system_cpu_interrupts_pio -->
<g id="edge11" class="edge">
<title>system_membus_mem_side_ports&#45;&gt;system_cpu_interrupts_pio</title>
<path fill="none" stroke="black" d="M396.23,-364.85C405.93,-360.18 415.06,-354.05 422,-346 453.18,-309.83 458.7,-251.88 458.97,-217.87"/>
<polygon fill="black" stroke="black" points="462.47,-217.71 458.9,-207.73 455.47,-217.75 462.47,-217.71"/>
</g>
<!-- system_mem_ctrls_port -->
<g id="node19" class="node">
<title>system_mem_ctrls_port</title>
<path fill="#94918b" stroke="#000000" d="M997,-171.5C997,-171.5 1027,-171.5 1027,-171.5 1033,-171.5 1039,-177.5 1039,-183.5 1039,-183.5 1039,-195.5 1039,-195.5 1039,-201.5 1033,-207.5 1027,-207.5 1027,-207.5 997,-207.5 997,-207.5 991,-207.5 985,-201.5 985,-195.5 985,-195.5 985,-183.5 985,-183.5 985,-177.5 991,-171.5 997,-171.5"/>
<text text-anchor="middle" x="1012" y="-185.8" font-family="Arial" font-size="14.00" fill="#000000">port</text>
</g>
<!-- system_membus_mem_side_ports&#45;&gt;system_mem_ctrls_port -->
<g id="edge13" class="edge">
<title>system_membus_mem_side_ports&#45;&gt;system_mem_ctrls_port</title>
<path fill="none" stroke="black" d="M396.02,-379.98C542.25,-380.67 912.79,-379.08 957,-346 997.31,-315.84 1008.19,-253.76 1011.06,-217.83"/>
<polygon fill="black" stroke="black" points="1014.57,-217.79 1011.71,-207.59 1007.58,-217.34 1014.57,-217.79"/>
</g>
</g>
</svg>
